<svg width="72" height="54" viewBox="0 0 72 54" fill="none" xmlns="http://www.w3.org/2000/svg">
<path fill-rule="evenodd" clip-rule="evenodd" d="M30 0C11.676 3.618 0 19.752 0 35.175C0 47.085 8.358 54 17.403 54C25.248 54 33 48.609 33 39.063C33 31.257 27.285 24.792 19.812 23.616C20.463 17.604 26.307 8.883 32.952 6.378L30 0ZM69 0C50.676 3.618 39 19.752 39 35.175C39 47.085 47.358 54 56.403 54C64.248 54 72 48.609 72 39.063C72 31.257 66.285 24.792 58.812 23.616C59.463 17.604 65.307 8.883 71.952 6.378L69 0Z" fill="#f97316"/>
</svg>
